<?xml version="1.0" encoding="UTF-8"?> <svg xmlns="http://www.w3.org/2000/svg" width="500" height="226" viewBox="0 0 500 226" fill="none"><path d="M53.3983 124.821C56.0375 121.225 59.6099 118.277 63.9282 116.39C65.5971 115.649 67.3539 114.948 69.1931 114.306C66.4421 110.121 64.8426 105.109 64.8426 99.719C64.8426 98.4309 64.9339 97.1644 65.1105 95.9257C62.7192 95.4446 60.164 95.1607 57.4705 95.1607C51.3553 95.1607 45.9529 96.6239 41.5634 98.5747C37.5116 100.338 34.9604 104.39 34.9604 108.817V111.705C34.9604 113.718 35.7865 115.642 37.2454 117.028C41.8528 121.405 47.5259 124.002 53.3983 124.821Z" fill="#3947A8"></path><path d="M129.557 125.009C126.904 121.321 123.285 118.292 118.913 116.349L118.88 116.334L118.848 116.32C117.195 115.6 115.454 114.915 113.63 114.284C116.372 110.104 117.966 105.1 117.966 99.719C117.966 98.5736 117.894 97.4453 117.754 96.3383C120.649 95.6083 123.813 95.1607 127.196 95.1607C133.311 95.1607 138.713 96.6239 143.103 98.5372C147.154 100.338 149.706 104.39 149.706 108.779V111.705C149.706 113.718 148.88 115.642 147.421 117.028C142.367 121.829 136.031 124.489 129.557 125.009Z" fill="#3947A8"></path><path d="M57.4705 69.8369C63.6983 69.8369 68.7256 74.8641 68.7256 81.0919C68.7256 87.3197 63.6983 92.3469 57.4705 92.3469C51.2427 92.3469 46.2155 87.3197 46.2155 81.0919C46.2155 74.8641 51.2427 69.8369 57.4705 69.8369Z" fill="#3947A8"></path><path d="M127.196 69.8369C133.423 69.8369 138.451 74.8641 138.451 81.0919C138.451 87.3197 133.423 92.3469 127.196 92.3469C120.968 92.3469 115.94 87.3197 115.94 81.0919C115.94 74.8641 120.968 69.8369 127.196 69.8369Z" fill="#3947A8"></path><path d="M91.4045 120.47C100.424 120.47 108.393 122.629 114.867 125.451C120.844 128.107 124.607 134.083 124.607 140.558V144.874C124.607 147.842 123.388 150.68 121.237 152.724C104.519 168.606 78.2899 168.606 61.5724 152.724C59.4205 150.68 58.2021 147.842 58.2021 144.874V140.613C58.2021 134.083 61.965 128.107 67.9415 125.506C74.4159 122.629 82.3845 120.47 91.4045 120.47ZM91.4045 83.1178C100.59 83.1178 108.006 90.533 108.006 99.719C108.006 108.905 100.59 116.32 91.4045 116.32C82.2185 116.32 74.8033 108.905 74.8033 99.719C74.8033 90.533 82.2185 83.1178 91.4045 83.1178Z" fill="#3947A8"></path><path d="M183.581 99.0379V109.497H197.626V116.13H183.581V127.187H199.419V134H175.214V92.2248H199.419V99.0379H183.581ZM225.37 100.412C229.314 100.412 232.502 101.668 234.932 104.178C237.363 106.648 238.578 110.114 238.578 114.577V134H230.211V115.712C230.211 113.083 229.553 111.07 228.239 109.676C226.924 108.242 225.131 107.524 222.86 107.524C220.549 107.524 218.716 108.242 217.361 109.676C216.047 111.07 215.389 113.083 215.389 115.712V134H207.022V100.891H215.389V105.014C216.505 103.58 217.919 102.464 219.632 101.668C221.386 100.831 223.298 100.412 225.37 100.412ZM259.503 100.353C261.973 100.353 264.145 100.851 266.017 101.847C267.89 102.803 269.364 104.058 270.44 105.612V100.891H278.867V134.239C278.867 137.307 278.249 140.036 277.014 142.427C275.779 144.857 273.926 146.77 271.456 148.164C268.986 149.598 265.998 150.316 262.491 150.316C257.79 150.316 253.925 149.22 250.897 147.029C247.909 144.837 246.216 141.849 245.817 138.064H254.124C254.563 139.578 255.499 140.773 256.933 141.65C258.408 142.566 260.181 143.024 262.252 143.024C264.683 143.024 266.655 142.287 268.169 140.813C269.683 139.379 270.44 137.187 270.44 134.239V129.099C269.364 130.653 267.87 131.948 265.958 132.984C264.085 134.02 261.934 134.538 259.503 134.538C256.714 134.538 254.164 133.821 251.853 132.386C249.542 130.952 247.71 128.94 246.355 126.35C245.04 123.721 244.383 120.712 244.383 117.326C244.383 113.979 245.04 111.011 246.355 108.421C247.71 105.831 249.523 103.839 251.794 102.444C254.104 101.05 256.674 100.353 259.503 100.353ZM270.44 117.445C270.44 115.413 270.042 113.68 269.245 112.246C268.448 110.772 267.372 109.656 266.017 108.899C264.663 108.102 263.209 107.704 261.655 107.704C260.101 107.704 258.666 108.082 257.352 108.839C256.037 109.596 254.961 110.712 254.124 112.186C253.328 113.62 252.929 115.334 252.929 117.326C252.929 119.318 253.328 121.071 254.124 122.585C254.961 124.059 256.037 125.195 257.352 125.992C258.706 126.788 260.141 127.187 261.655 127.187C263.209 127.187 264.663 126.808 266.017 126.051C267.372 125.254 268.448 124.139 269.245 122.705C270.042 121.23 270.44 119.477 270.44 117.445ZM284.887 117.326C284.887 113.979 285.545 111.011 286.859 108.421C288.214 105.831 290.027 103.839 292.298 102.444C294.609 101.05 297.179 100.353 300.007 100.353C302.478 100.353 304.629 100.851 306.462 101.847C308.335 102.843 309.829 104.098 310.944 105.612V100.891H319.371V134H310.944V129.159C309.869 130.713 308.374 132.008 306.462 133.044C304.589 134.04 302.418 134.538 299.948 134.538C297.159 134.538 294.609 133.821 292.298 132.386C290.027 130.952 288.214 128.94 286.859 126.35C285.545 123.721 284.887 120.712 284.887 117.326ZM310.944 117.445C310.944 115.413 310.546 113.68 309.749 112.246C308.952 110.772 307.876 109.656 306.522 108.899C305.167 108.102 303.713 107.704 302.159 107.704C300.605 107.704 299.171 108.082 297.856 108.839C296.541 109.596 295.465 110.712 294.629 112.186C293.832 113.62 293.433 115.334 293.433 117.326C293.433 119.318 293.832 121.071 294.629 122.585C295.465 124.059 296.541 125.195 297.856 125.992C299.211 126.788 300.645 127.187 302.159 127.187C303.713 127.187 305.167 126.808 306.522 126.051C307.876 125.254 308.952 124.139 309.749 122.705C310.546 121.23 310.944 119.477 310.944 117.445ZM340.512 100.353C342.982 100.353 345.153 100.851 347.026 101.847C348.899 102.803 350.373 104.058 351.449 105.612V100.891H359.875V134.239C359.875 137.307 359.258 140.036 358.023 142.427C356.788 144.857 354.935 146.77 352.465 148.164C349.994 149.598 347.006 150.316 343.5 150.316C338.799 150.316 334.934 149.22 331.906 147.029C328.918 144.837 327.224 141.849 326.826 138.064H335.133C335.571 139.578 336.508 140.773 337.942 141.65C339.416 142.566 341.189 143.024 343.261 143.024C345.691 143.024 347.664 142.287 349.178 140.813C350.692 139.379 351.449 137.187 351.449 134.239V129.099C350.373 130.653 348.879 131.948 346.966 132.984C345.094 134.02 342.942 134.538 340.512 134.538C337.723 134.538 335.173 133.821 332.862 132.386C330.551 130.952 328.718 128.94 327.364 126.35C326.049 123.721 325.391 120.712 325.391 117.326C325.391 113.979 326.049 111.011 327.364 108.421C328.718 105.831 330.531 103.839 332.802 102.444C335.113 101.05 337.683 100.353 340.512 100.353ZM351.449 117.445C351.449 115.413 351.05 113.68 350.253 112.246C349.457 110.772 348.381 109.656 347.026 108.899C345.671 108.102 344.217 107.704 342.663 107.704C341.109 107.704 339.675 108.082 338.36 108.839C337.045 109.596 335.97 110.712 335.133 112.186C334.336 113.62 333.938 115.334 333.938 117.326C333.938 119.318 334.336 121.071 335.133 122.585C335.97 124.059 337.045 125.195 338.36 125.992C339.715 126.788 341.149 127.187 342.663 127.187C344.217 127.187 345.671 126.808 347.026 126.051C348.381 125.254 349.457 124.139 350.253 122.705C351.05 121.23 351.449 119.477 351.449 117.445ZM398.826 116.728C398.826 117.923 398.746 118.999 398.587 119.955H374.382C374.581 122.346 375.418 124.219 376.892 125.573C378.367 126.928 380.179 127.605 382.331 127.605C385.439 127.605 387.65 126.27 388.965 123.601H397.989C397.033 126.788 395.2 129.418 392.491 131.49C389.782 133.522 386.455 134.538 382.51 134.538C379.323 134.538 376.454 133.841 373.904 132.446C371.394 131.012 369.422 129 367.987 126.41C366.593 123.82 365.896 120.832 365.896 117.445C365.896 114.019 366.593 111.011 367.987 108.421C369.382 105.831 371.334 103.839 373.844 102.444C376.354 101.05 379.243 100.353 382.51 100.353C385.658 100.353 388.467 101.03 390.937 102.385C393.447 103.739 395.379 105.672 396.734 108.182C398.129 110.652 398.826 113.501 398.826 116.728ZM390.16 114.338C390.12 112.186 389.343 110.473 387.829 109.198C386.315 107.883 384.463 107.226 382.271 107.226C380.199 107.226 378.446 107.863 377.012 109.138C375.617 110.373 374.761 112.106 374.442 114.338H390.16ZM444.753 126.051H428.138L425.389 134H416.604L431.605 92.2248H441.346L456.347 134H447.502L444.753 126.051ZM442.482 119.358L436.446 101.907L430.409 119.358H442.482ZM470.321 92.2845V134H461.954V92.2845H470.321Z" fill="#3947A8"></path></svg> 