<?xml version="1.0" encoding="UTF-8"?>
<svg width="124px" height="40px" viewBox="0 0 124 40" version="1.1" xmlns="http://www.w3.org/2000/svg" xmlns:xlink="http://www.w3.org/1999/xlink">
    <!-- Generator: Sketch 61.2 (89653) - https://sketch.com -->
    <title>Group 21</title>
    <desc>Created with Sketch.</desc>
    <defs>
        <polygon id="path-1" points="0 39.7222222 123.092778 39.7222222 123.092778 0.185277778 0 0.185277778"></polygon>
    </defs>
    <g id="Mockup" stroke="none" stroke-width="1" fill="none" fill-rule="evenodd">
        <g id="Landing-pg" transform="translate(-135.000000, -15.000000)">
            <g id="Navbar">
                <g id="Group-21" transform="translate(135.000000, 15.000000)">
                    <path d="M0,39.8147222 L39.5369444,39.8147222 L39.5369444,0.277777778 L0,0.277777778 L0,39.8147222 Z M1.11111111,38.7036111 L38.4261111,38.7036111 L38.4261111,1.38888889 L1.11111111,1.38888889 L1.11111111,38.7036111 Z" id="Fill-1" fill="#175757"></path>
                    <polygon id="Fill-2" fill="#175757" points="11.2961111 31.5277778 17.8702778 31.5277778 17.8702778 16.8055556 11.2961111 16.8055556"></polygon>
                    <polygon id="Fill-3" fill="#175757" points="21.6202778 31.5277778 28.1944444 31.5277778 28.1944444 8.29666667 21.6202778 8.29666667"></polygon>
                    <g id="Group-20" transform="translate(0.000000, 0.092500)">
                        <path d="M49.2115556,8.57911111 L51.1604444,8.57911111 C51.7685,8.57911111 52.2512778,8.4155 52.6087778,8.08716667 C52.9665556,7.75966667 53.1451667,7.32161111 53.1451667,6.77327778 C53.1451667,6.213 52.9690556,5.76911111 52.6176667,5.44105556 C52.266,5.11327778 51.7801667,4.94938889 51.1604444,4.94938889 L49.2115556,4.94938889 L49.2115556,8.57911111 Z M51.4643333,10.7068889 L49.1937778,10.7068889 L49.1937778,15.4810556 L46.726,15.4810556 L46.726,2.80355556 L51.4643333,2.80355556 C52.7040556,2.80355556 53.7085,3.17327778 54.4773889,3.91216667 C55.2462778,4.65133333 55.6304444,5.59911111 55.6304444,6.75522222 C55.6304444,7.91161111 55.2462778,8.85938889 54.4773889,9.59827778 C53.7085,10.3374444 52.7040556,10.7068889 51.4643333,10.7068889 L51.4643333,10.7068889 Z" id="Fill-4" fill="#175757"></path>
                        <path d="M65.3571111,15.7671389 C63.9504444,15.7671389 62.7882222,15.3468611 61.8704444,14.5063056 C60.9526667,13.6660278 60.4937778,12.4949167 60.4937778,10.9929722 L60.4937778,2.80380556 L62.9612778,2.80380556 L62.9612778,10.8140833 C62.9612778,11.6365833 63.1726667,12.2654722 63.596,12.7004722 C64.0187778,13.13575 64.6062778,13.35325 65.3571111,13.35325 C66.1198889,13.35325 66.7129444,13.13575 67.136,12.7004722 C67.5593333,12.2654722 67.7707222,11.6365833 67.7707222,10.8140833 L67.7707222,2.80380556 L70.2382222,2.80380556 L70.2382222,10.9929722 C70.2382222,12.4949167 69.7793333,13.6660278 68.8618333,14.5063056 C67.9440556,15.3468611 66.7751667,15.7671389 65.3571111,15.7671389" id="Fill-6" fill="#175757"></path>
                        <path d="M78.4815833,13.42475 L80.4840833,13.42475 C81.0799167,13.42475 81.5479722,13.2789167 81.8876944,12.9866944 C82.2274167,12.69475 82.3974167,12.29225 82.3974167,11.77975 C82.3974167,11.26725 82.23325,10.8558611 81.9054722,10.5458611 C81.5776944,10.2361389 81.11575,10.0808611 80.5199167,10.0808611 L78.4815833,10.0808611 L78.4815833,13.42475 Z M78.4815833,8.04280556 L80.2338056,8.04280556 C80.7938056,8.04280556 81.2349167,7.89947222 81.5568611,7.61363889 C81.8785278,7.32752778 82.0399167,6.94030556 82.0399167,6.45141667 C82.0399167,5.96252778 81.8815833,5.57808333 81.5660278,5.29808333 C81.2499167,5.01808333 80.7999167,4.87780556 80.21575,4.87780556 L78.4815833,4.87780556 L78.4815833,8.04280556 Z M76.0496389,2.80363889 L80.6090833,2.80363889 C81.8129722,2.80363889 82.7576944,3.11947222 83.44325,3.75141667 C84.1285278,4.38336111 84.4713056,5.20586111 84.4713056,6.21891667 C84.4713056,6.86252778 84.29825,7.43197222 83.9526944,7.92641667 C83.6068611,8.42113889 83.1660278,8.75780556 82.6299167,8.93669444 C83.2735278,9.09169444 83.8068611,9.44030556 84.2299167,9.98252778 C84.6529722,10.5253056 84.8646389,11.1778056 84.8646389,11.9405833 C84.8646389,12.9778056 84.5071389,13.8269722 83.7918611,14.4883611 C83.0768611,15.1500278 82.1290833,15.4808611 80.9490833,15.4808611 L76.0496389,15.4808611 L76.0496389,2.80363889 Z" id="Fill-8" fill="#175757"></path>
                        <polygon id="Fill-10" fill="#175757" points="98.11375 15.4809444 89.9959722 15.4809444 89.9959722 2.80372222 92.4634722 2.80372222 92.4634722 13.1206667 98.11375 13.1206667"></polygon>
                        <mask id="mask-2" fill="white">
                            <use xlink:href="#path-1"></use>
                        </mask>
                        <g id="Clip-13"></g>
                        <polygon id="Fill-12" fill="#175757" mask="url(#mask-2)" points="103.048889 15.4808333 105.552222 15.4808333 105.552222 2.80361111 103.048889 2.80361111"></polygon>
                        <path d="M117.228056,15.74925 C115.404167,15.74925 113.866389,15.1411944 112.615,13.9253611 C111.363333,12.7095278 110.7375,11.1181389 110.7375,9.15119444 C110.7375,7.19647222 111.372222,5.60508333 112.641667,4.37730556 C113.911389,3.14952778 115.428056,2.53536111 117.192222,2.53536111 C118.813333,2.53536111 120.115833,2.94675 121.099167,3.76925 C122.082778,4.59175 122.7175,5.58147222 123.003333,6.73730556 L120.678889,7.47036111 C120.5,6.75536111 120.124722,6.15036111 119.5525,5.65563889 C118.980278,5.16119444 118.193611,4.91369444 117.192222,4.91369444 C116.155278,4.91369444 115.246111,5.28313889 114.465556,6.02202778 C113.684444,6.76147222 113.294444,7.80425 113.294444,9.15119444 C113.294444,10.4386944 113.678889,11.4578611 114.4475,12.2086944 C115.216389,12.9598056 116.143333,13.3353611 117.228056,13.3353611 C118.2175,13.3353611 119.006944,13.07925 119.596944,12.5664722 C120.187222,12.0539722 120.583333,11.4461944 120.786389,10.7425833 L123.092778,11.4398056 C122.961667,11.9525833 122.75,12.4534167 122.458056,12.9420278 C122.165833,13.4309167 121.7875,13.8895278 121.3225,14.3186944 C120.8575,14.7478611 120.270556,15.0936944 119.561389,15.3559167 C118.852222,15.6178611 118.074167,15.74925 117.228056,15.74925" id="Fill-14" fill="#175757" mask="url(#mask-2)"></path>
                        <path d="M51.5398611,35.3786944 C49.7159722,35.3786944 48.1781944,34.7709167 46.9265278,33.5550833 C45.6748611,32.3389722 45.0490278,30.7475833 45.0490278,28.7806389 C45.0490278,26.8259167 45.68375,25.2345278 46.9534722,24.00675 C48.2229167,22.77925 49.7398611,22.1650833 51.5040278,22.1650833 C53.1251389,22.1650833 54.4276389,22.5761944 55.4109722,23.3986944 C56.3943056,24.2211944 57.0290278,25.2109167 57.3154167,26.3670278 L54.9906944,27.0998056 C54.8118056,26.3848056 54.4365278,25.7798056 53.8643056,25.2850833 C53.2920833,24.7906389 52.5054167,24.5431389 51.5040278,24.5431389 C50.4670833,24.5431389 49.5579167,24.9125833 48.7773611,25.6514722 C47.9965278,26.3909167 47.6059722,27.4336944 47.6059722,28.7806389 C47.6059722,30.0681389 47.9904167,31.0873056 48.7593056,31.8384167 C49.5281944,32.58925 50.4548611,32.9648056 51.5398611,32.9648056 C52.5290278,32.9648056 53.3190278,32.7086944 53.9090278,32.1959167 C54.4990278,31.6834167 54.8951389,31.0756389 55.0981944,30.3723056 L57.4045833,31.06925 C57.2734722,31.5820278 57.0618056,32.0828611 56.7698611,32.5714722 C56.4776389,33.0603611 56.0993056,33.51925 55.6345833,33.9484167 C55.1695833,34.3775833 54.5823611,34.7234167 53.8731944,34.9853611 C53.16375,35.2473056 52.3859722,35.3786944 51.5398611,35.3786944" id="Fill-15" fill="#175757" mask="url(#mask-2)"></path>
                        <path d="M65.3617222,25.6426389 C64.5750556,26.3759722 64.1817222,27.4159722 64.1817222,28.7626389 C64.1817222,30.1101389 64.5750556,31.1498611 65.3617222,31.8831944 C66.1483889,32.6159722 67.0717222,32.9826389 68.1331111,32.9826389 C69.2061667,32.9826389 70.1356111,32.6159722 70.9222778,31.8831944 C71.7095,31.1498611 72.1028333,30.1101389 72.1028333,28.7626389 C72.1028333,27.4159722 71.7095,26.3759722 70.9222778,25.6426389 C70.1356111,24.9095833 69.2061667,24.5431944 68.1331111,24.5431944 C67.0717222,24.5431944 66.1483889,24.9095833 65.3617222,25.6426389 M61.6245,28.7806944 C61.6245,26.8020833 62.262,25.2045833 63.5378333,23.98875 C64.8131111,22.7729167 66.3447778,22.1648611 68.1331111,22.1648611 C69.9325556,22.1648611 71.4706111,22.7729167 72.7461667,23.98875 C74.0217222,25.2045833 74.6597778,26.8020833 74.6597778,28.7806944 C74.6597778,30.7476389 74.0217222,32.33875 72.7461667,33.5548611 C71.4706111,34.7706944 69.9325556,35.37875 68.1331111,35.37875 C66.3447778,35.37875 64.8131111,34.7706944 63.5378333,33.5548611 C62.262,32.33875 61.6245,30.7476389 61.6245,28.7806944" id="Fill-16" fill="#175757" mask="url(#mask-2)"></path>
                        <polygon id="Fill-17" fill="#175757" mask="url(#mask-2)" points="93.9883056 35.1104167 91.5563611 35.1104167 91.5563611 26.2240278 87.9088611 35.1104167 85.8524722 35.1104167 82.2049722 26.2954167 82.2049722 35.1104167 79.8446944 35.1104167 79.8446944 22.4331944 83.0991389 22.4331944 86.9074722 31.5879167 90.6266389 22.4331944 93.9883056 22.4331944"></polygon>
                        <path d="M102.409528,28.2085556 L104.358694,28.2085556 C104.966472,28.2085556 105.44925,28.0449444 105.80675,27.7166111 C106.164528,27.3891111 106.343417,26.9510556 106.343417,26.4027222 C106.343417,25.8424444 106.167306,25.3985556 105.815917,25.0705 C105.463972,24.7427222 104.978139,24.5788333 104.358694,24.5788333 L102.409528,24.5788333 L102.409528,28.2085556 Z M104.662583,30.3363333 L102.39175,30.3363333 L102.39175,35.1105 L99.92425,35.1105 L99.92425,22.4332778 L104.662583,22.4332778 C105.902028,22.4332778 106.906472,22.8027222 107.675361,23.5416111 C108.444528,24.2807778 108.828694,25.2285556 108.828694,26.3849444 C108.828694,27.5413333 108.444528,28.4888333 107.675361,29.2277222 C106.906472,29.9668889 105.902028,30.3363333 104.662583,30.3363333 L104.662583,30.3363333 Z" id="Fill-18" fill="#175757" mask="url(#mask-2)"></path>
                        <path d="M122.328139,25.4549167 L120.111194,26.1343611 C120.027583,25.6813056 119.800917,25.2701944 119.431472,24.90075 C119.062028,24.5313056 118.519806,24.3465833 117.804528,24.3465833 C117.220083,24.3465833 116.743417,24.5043611 116.373972,24.8201944 C116.00425,25.1363056 115.819528,25.5149167 115.819528,25.95575 C115.819528,26.73075 116.278694,27.2074167 117.196472,27.3860278 L118.966472,27.72575 C120.087028,27.9401944 120.957306,28.3874167 121.577306,29.0668611 C122.19675,29.7463056 122.507306,30.5449167 122.507306,31.4629722 C122.507306,32.5118611 122.092583,33.4268611 121.264528,34.2076944 C120.435917,34.98825 119.324528,35.3788056 117.929528,35.3788056 C117.130917,35.3788056 116.409806,35.2593611 115.766194,35.0210278 C115.122583,34.7826944 114.603694,34.4640833 114.210361,34.0643611 C113.817028,33.6651944 113.510083,33.2418611 113.289806,32.7949167 C113.068972,32.3476944 112.935083,31.8860278 112.887306,31.4093611 L115.176194,30.8013056 C115.235639,31.48075 115.500639,32.0468611 115.97175,32.4999167 C116.442583,32.9529722 117.101194,33.1793611 117.947306,33.1793611 C118.591194,33.1793611 119.094528,33.0363056 119.458417,32.7501944 C119.822028,32.4640833 120.003972,32.0888056 120.003972,31.6238056 C120.003972,31.2543611 119.869528,30.9351944 119.601472,30.6671389 C119.333417,30.3990833 118.954528,30.2174167 118.466194,30.1218611 L116.695917,29.7643611 C115.670639,29.5496389 114.860083,29.1265833 114.26425,28.4946389 C113.667861,27.8629722 113.370083,27.0763056 113.370083,26.1343611 C113.370083,25.0140833 113.802028,24.0721389 114.666472,23.3090833 C115.530639,22.5465833 116.570639,22.1649167 117.786472,22.1649167 C118.513694,22.1649167 119.163417,22.2663056 119.735639,22.4688056 C120.307861,22.6715833 120.766472,22.9426944 121.112306,23.2826944 C121.457861,23.6221389 121.726194,23.97075 121.917028,24.3285278 C122.107583,24.6860278 122.244806,25.0615833 122.328139,25.4549167" id="Fill-19" fill="#175757" mask="url(#mask-2)"></path>
                    </g>
                </g>
            </g>
        </g>
    </g>
</svg>